<svg xmlns="http://www.w3.org/2000/svg" viewBox="0 0 512 512">
  <defs>
    <linearGradient id="bg" x1="0%" y1="0%" x2="100%" y2="100%">
      <stop offset="0%" stop-color="#16161C"/>
      <stop offset="50%" stop-color="#0E0E13"/>
      <stop offset="100%" stop-color="#0A0A0F"/>
    </linearGradient>
    <linearGradient id="gold" x1="0%" y1="0%" x2="100%" y2="100%">
      <stop offset="0%" stop-color="#F5E0A0"/>
      <stop offset="35%" stop-color="#D4AF6A"/>
      <stop offset="70%" stop-color="#B8923F"/>
      <stop offset="100%" stop-color="#9B7B3C"/>
    </linearGradient>
    <linearGradient id="goldV" x1="0%" y1="0%" x2="0%" y2="100%">
      <stop offset="0%" stop-color="#F5E0A0"/>
      <stop offset="100%" stop-color="#C9A050"/>
    </linearGradient>
    <linearGradient id="mint" x1="0%" y1="0%" x2="100%" y2="100%">
      <stop offset="0%" stop-color="#7EEABC"/>
      <stop offset="100%" stop-color="#5FD4A0"/>
    </linearGradient>
    <radialGradient id="glow" cx="50%" cy="38%" r="45%">
      <stop offset="0%" stop-color="#D4AF6A" stop-opacity="0.1"/>
      <stop offset="100%" stop-color="#D4AF6A" stop-opacity="0"/>
    </radialGradient>
    <filter id="sh">
      <feDropShadow dx="0" dy="3" stdDeviation="6" flood-color="#D4AF6A" flood-opacity="0.25"/>
    </filter>
  </defs>
  <rect width="512" height="512" rx="115" fill="url(#bg)"/>
  <rect x="5" y="5" width="502" height="502" rx="111" fill="none" stroke="url(#gold)" stroke-width="1.2" opacity="0.18"/>
  <rect width="512" height="512" rx="115" fill="url(#glow)"/>
  <g opacity="0.07" stroke="url(#gold)" stroke-width="1.2" fill="none">
    <path d="M256 85 L365 215 L256 415 L147 215Z"/>
    <path d="M147 215L365 215"/>
    <path d="M256 85L203 215"/>
    <path d="M256 85L309 215"/>
  </g>
  <circle cx="256" cy="252" r="175" fill="none" stroke="url(#gold)" stroke-width="0.7" opacity="0.05"/>
  <text x="256" y="320" text-anchor="middle" font-family="Georgia,'Times New Roman',serif" font-size="255" font-weight="400" fill="url(#goldV)" filter="url(#sh)">S</text>
  <line x1="168" y1="362" x2="344" y2="362" stroke="url(#gold)" stroke-width="2.5" stroke-linecap="round" opacity="0.45"/>
  <circle cx="168" cy="362" r="3" fill="url(#gold)" opacity="0.35"/>
  <circle cx="344" cy="362" r="3" fill="url(#gold)" opacity="0.35"/>
  <text x="256" y="412" text-anchor="middle" font-family="'Helvetica Neue',Arial,sans-serif" font-size="33" font-weight="300" fill="url(#gold)" opacity="0.5" letter-spacing="10">FINANCE</text>
  <circle cx="256" cy="442" r="3.5" fill="url(#mint)" opacity="0.35"/>
</svg>
